<svg version="1.1" id="Layer_1" xmlns="http://www.w3.org/2000/svg" xmlns:xlink="http://www.w3.org/1999/xlink" x="0px" y="0px"
	 width="100%" viewBox="0 0 433 577" enable-background="new 0 0 433 577" xml:space="preserve">
<path fill="#000000" opacity="1.000000" stroke="none" 
	d="
M235.000000,578.000000 
	C156.666687,578.000000 78.833374,578.000000 1.000042,578.000000 
	C1.000028,385.666718 1.000028,193.333466 1.000014,1.000145 
	C145.333237,1.000097 289.666473,1.000097 433.999756,1.000048 
	C433.999847,193.333191 433.999847,385.666382 433.999939,577.999756 
	C367.833344,578.000000 301.666656,578.000000 235.000000,578.000000 
M239.000717,426.002594 
	C239.000717,426.002594 239.010284,425.977539 238.921707,425.309113 
	C237.996902,424.842987 237.072098,424.376862 236.081223,423.952240 
	C236.081223,423.952240 236.062500,423.876495 235.930939,423.214386 
	C233.955536,421.809662 231.980133,420.404938 230.633118,418.438873 
	C230.760193,407.270050 230.896759,396.101318 230.967682,384.932129 
	C230.969788,384.602539 230.281097,384.268585 229.235977,383.996399 
	C228.782425,384.018005 228.328857,384.039642 227.457489,383.952698 
	C227.457489,383.952698 227.041580,383.837036 227.354309,383.164429 
	C233.744156,380.666901 240.073792,377.993530 246.558685,375.773712 
	C248.639267,375.061462 251.213120,375.132904 253.414963,375.574860 
	C257.457062,376.386230 261.428650,377.621124 265.360809,378.892303 
	C272.161621,381.090881 278.588928,380.533051 284.201660,376.012756 
	C289.153839,372.024445 294.551117,370.186737 301.447906,370.988007 
	C301.649109,370.979034 301.850281,370.970062 302.689514,370.417786 
	C302.787384,360.622223 302.907196,350.826721 302.936157,341.030945 
	C302.938202,340.340942 302.269989,339.648926 301.564240,338.929382 
	C301.564240,338.929382 301.215393,338.961609 301.069550,338.319214 
	C301.115570,337.885162 301.161591,337.451080 301.485626,336.810974 
	C301.381287,336.534485 301.276947,336.257996 300.984344,335.337128 
	C301.041931,334.897339 301.099487,334.457581 301.451050,333.811615 
	C301.344513,333.525269 301.237976,333.238953 301.087006,333.041901 
	C301.087006,333.041901 300.993195,333.008057 301.279724,332.363312 
	C301.316681,331.894592 301.353607,331.425903 301.729034,330.286224 
	C301.769470,328.466553 301.809906,326.646851 301.843781,323.911530 
	C301.873291,311.660309 301.933075,299.408966 301.890472,287.157990 
	C301.885620,285.773193 301.303833,284.390350 300.605377,282.950378 
	C300.605377,282.950378 300.217377,282.967712 300.028961,282.485260 
	C299.942596,282.335724 299.856262,282.186218 299.922241,281.206635 
	C299.945190,279.806061 299.968170,278.405487 300.458435,276.331818 
	C300.570923,270.185883 300.740936,264.040314 300.784698,257.893890 
	C300.897247,242.089005 300.996033,226.283600 300.947876,210.478851 
	C300.944275,209.295975 299.730011,208.116776 299.018341,206.017944 
	C297.356018,190.775665 296.112488,175.473618 293.948059,160.302963 
	C288.707733,123.572899 260.717041,91.993942 220.864838,84.081512 
	C220.375397,83.741096 219.889832,83.110191 219.395950,83.103622 
	C211.312622,82.996094 203.227692,82.915886 195.145035,83.004837 
	C194.380829,83.013252 193.629532,84.195381 192.056519,85.026367 
	C187.020569,86.348663 181.931946,87.499130 176.957870,89.023369 
	C156.685959,95.235420 141.682053,107.848152 132.171722,126.775238 
	C127.869278,135.337769 123.517326,143.951736 120.203522,152.917755 
	C114.532951,168.260345 111.496803,184.284973 110.023827,200.585419 
	C109.292809,208.675171 108.634010,216.772278 107.807503,224.852249 
	C107.359314,229.233826 106.627693,233.586411 105.310585,238.444000 
	C105.214241,238.761398 105.033493,239.078796 105.033485,239.396194 
	C105.032837,281.002716 105.033180,322.609253 105.134537,364.215576 
	C105.136848,365.166534 106.289101,366.114716 107.105225,367.716827 
	C109.633163,371.484283 112.240273,375.648132 117.362907,375.355530 
	C124.076042,374.972015 130.857712,374.265594 137.395096,372.763306 
	C143.735428,371.306274 148.668121,372.954407 153.483063,376.812408 
	C156.066360,378.882324 159.099701,380.390594 162.010590,382.692352 
	C162.288223,383.124603 162.565842,383.556885 162.838120,384.779297 
	C162.775833,387.320831 162.713547,389.862335 162.268600,393.282898 
	C162.472549,396.188019 162.676498,399.093109 162.989471,402.703339 
	C163.323471,403.808319 163.657486,404.913269 163.747452,406.237823 
	C163.747452,406.237823 163.930862,406.510040 163.255951,407.088562 
	C163.484680,410.713837 163.713409,414.339081 163.338593,418.032684 
	C162.849045,418.293365 162.359497,418.554047 161.166687,419.040192 
	C152.101212,421.433258 148.070953,429.441895 143.525986,434.714233 
	C134.279953,428.297150 125.221321,422.010132 116.358665,415.258911 
	C115.286896,415.131989 114.215134,415.005035 112.558662,414.377808 
	C109.099358,414.350006 104.444214,412.932312 102.470100,414.630768 
	C99.730316,416.987976 98.336418,421.551208 97.565407,425.409607 
	C96.304611,431.719177 96.010323,438.221893 95.206680,445.572876 
	C94.937408,443.598053 94.784531,442.476868 94.631645,441.355652 
	C94.024193,458.992188 100.748573,469.377686 115.547546,468.608887 
	C120.434929,470.407532 125.296120,471.433929 130.670868,468.028931 
	C131.114716,468.038818 131.558563,468.048737 132.535416,468.536438 
	C134.027191,468.028839 135.518951,467.521210 137.394150,466.516937 
	C137.520294,466.350128 137.646454,466.183319 138.379166,466.104828 
	C140.920700,465.734833 143.462219,465.364868 146.658768,464.769714 
	C148.777405,463.852814 150.896042,462.935913 153.740280,462.359741 
	C157.455811,462.211761 161.171356,462.063812 165.527573,461.994873 
	C165.955673,462.031372 166.383789,462.067841 167.519669,462.558929 
	C169.975449,462.667999 172.431473,462.772064 174.886963,462.887421 
	C177.983353,463.032837 180.900085,462.832458 182.568130,458.988983 
	C182.697906,458.676056 182.827698,458.363129 183.052719,458.013245 
	C183.052719,458.013245 183.023895,457.915253 183.453415,457.755890 
	C185.065582,452.695282 187.146347,447.721863 188.110138,442.540649 
	C188.667786,439.542847 187.425827,436.210266 186.891434,432.322296 
	C184.373627,426.606079 181.397888,421.370941 174.761688,419.992401 
	C173.780243,423.267487 172.943039,426.061218 172.135864,428.012482 
	C172.398376,424.674561 172.660889,421.336609 172.959656,417.453491 
	C172.934113,416.939941 172.908585,416.426422 173.547165,416.031952 
	C174.052933,414.792786 174.981552,413.557953 174.994339,412.313721 
	C175.065353,405.398651 175.056519,398.475739 174.789780,391.566528 
	C174.605637,386.797058 174.366684,382.273499 180.308441,380.669708 
	C180.664505,380.573639 180.774261,379.565094 181.296906,378.472900 
	C181.847153,378.272736 182.397400,378.072540 183.089935,378.364288 
	C183.419678,377.963654 183.749420,377.563019 184.394516,376.955688 
	C184.394516,376.955688 184.755386,376.846344 185.629959,376.892120 
	C190.100082,376.296356 194.570221,375.700592 199.792557,375.061188 
	C206.548584,377.736603 213.304611,380.411987 219.713928,383.833160 
	C219.544510,386.871826 219.375076,389.910522 219.038712,393.841492 
	C219.331146,401.209045 219.623581,408.576599 219.315918,416.304718 
	C218.239868,417.824951 217.163818,419.345215 215.300980,420.969727 
	C213.335358,421.646027 211.057175,421.896515 209.457184,423.070923 
	C201.738892,428.736389 198.901459,436.576080 199.677780,446.289551 
	C199.605774,446.705292 199.533783,447.121002 199.461792,447.536743 
	C199.542236,447.549591 199.622665,447.562469 199.703094,447.575348 
	C199.776337,447.017853 199.849579,446.460358 200.474930,446.474915 
	C200.802155,448.403381 201.034363,450.353729 201.472702,452.256622 
	C203.626709,461.607330 204.860443,462.647797 213.861740,462.060516 
	C215.605408,461.946716 217.288345,460.902008 219.470673,460.814362 
	C221.652008,460.244507 223.833344,459.674652 226.688950,459.163879 
	C227.965500,460.420380 229.066177,461.967377 230.557053,462.869812 
	C233.241394,464.494690 236.159531,465.733337 239.491272,467.695709 
	C241.680008,468.147980 243.868729,468.600220 245.298981,469.055389 
	C244.032959,469.114136 242.766953,469.172852 241.500946,469.231567 
	C241.535553,469.461853 241.570175,469.692139 241.604782,469.922424 
	C243.074158,469.613983 244.543533,469.305542 246.906631,469.034698 
	C254.444565,468.117950 262.065063,467.626892 269.501160,466.184967 
	C280.738647,464.005859 285.526398,457.908386 284.996948,446.744598 
	C284.332794,432.740326 280.805603,420.086456 266.519440,412.527130 
	C262.204803,409.934143 259.040649,410.657043 255.978943,415.005310 
	C255.978943,415.005310 255.935318,414.952606 255.223404,414.940094 
	C253.408432,415.940674 251.593460,416.941254 249.223434,418.284973 
	C247.278748,420.962860 245.334061,423.640717 243.138428,425.967224 
	C243.138428,425.967224 243.373840,426.326385 242.612991,426.304016 
	C241.968826,426.707703 241.324661,427.111389 240.653061,427.436188 
	C240.653061,427.436188 240.710022,427.375000 240.642441,426.744934 
	C240.102844,426.492493 239.563248,426.240051 239.000717,426.002594 
M139.579346,467.515778 
	C139.579346,467.515778 139.471375,467.577484 139.579346,467.515778 
z"/>
<path fill="#C4D8F9" opacity="1.000000" stroke="none" 
	d="
M182.947647,377.872375 
	C182.397400,378.072540 181.847153,378.272736 180.778290,378.729492 
	C176.532318,380.340240 172.804977,381.694397 168.768890,383.135559 
	C167.650665,383.439728 166.841202,383.656891 165.934540,383.541840 
	C164.534882,382.857178 163.232422,382.504730 161.929977,382.152252 
	C159.099701,380.390594 156.066360,378.882324 153.483063,376.812408 
	C148.668121,372.954407 143.735428,371.306274 137.395096,372.763306 
	C130.857712,374.265594 124.076042,374.972015 117.362907,375.355530 
	C112.240273,375.648132 109.633163,371.484283 107.093193,367.118134 
	C107.119057,366.332489 107.156960,366.145538 107.426620,365.621124 
	C107.772575,364.298218 107.986206,363.312775 107.986603,362.327301 
	C108.002068,323.997223 108.007011,285.667145 107.961884,247.337112 
	C107.960190,245.899887 107.447334,244.463257 107.094368,242.639130 
	C106.685349,240.818619 106.354637,239.385345 106.023926,237.952072 
	C106.627693,233.586411 107.359314,229.233826 107.807503,224.852249 
	C108.634010,216.772278 109.292809,208.675171 110.023827,200.585419 
	C111.496803,184.284973 114.532951,168.260345 120.203522,152.917755 
	C123.517326,143.951736 127.869278,135.337769 132.171722,126.775238 
	C141.682053,107.848152 156.685959,95.235420 176.957870,89.023369 
	C181.931946,87.499130 187.020569,86.348663 192.941895,84.953766 
	C202.913635,84.882904 212.000000,84.884636 221.086365,84.886368 
	C260.717041,91.993942 288.707733,123.572899 293.948059,160.302963 
	C296.112488,175.473618 297.356018,190.775665 298.936157,206.745361 
	C298.820831,207.663849 298.787689,207.854889 298.539978,208.392975 
	C298.223175,232.685532 298.110504,256.631073 298.091858,280.576660 
	C298.091492,281.062927 299.186157,281.550018 299.769958,282.036743 
	C299.856262,282.186218 299.942596,282.335724 300.015350,283.186676 
	C300.050140,294.229980 300.098541,304.571869 300.065063,315.354492 
	C300.273926,318.871033 300.564697,321.946838 300.799133,325.314636 
	C300.766907,326.001038 300.790985,326.395386 300.676147,327.118896 
	C300.689209,329.301392 300.841187,331.154724 300.993164,333.008057 
	C300.993195,333.008057 301.087006,333.041901 301.013306,333.265991 
	C301.012054,333.665985 301.084564,333.841888 301.157074,334.017792 
	C301.099487,334.457581 301.041931,334.897339 300.985565,335.921722 
	C301.060425,336.676575 301.134033,336.846802 301.207642,337.017029 
	C301.161591,337.451080 301.115570,337.885162 301.030579,339.013367 
	C300.930420,340.480194 300.869232,341.252930 300.585236,342.369751 
	C300.517456,351.804535 300.672455,360.895203 300.884216,370.224487 
	C300.941010,370.463104 300.845032,370.944122 300.845032,370.944122 
	C294.551117,370.186737 289.153839,372.024445 284.201660,376.012756 
	C278.588928,380.533051 272.161621,381.090881 265.360809,378.892303 
	C261.428650,377.621124 257.457062,376.386230 253.414963,375.574860 
	C251.213120,375.132904 248.639267,375.061462 246.558685,375.773712 
	C240.073792,377.993530 233.744156,380.666901 226.872742,383.362122 
	C224.281006,383.402313 222.170837,383.244843 220.060654,383.087372 
	C213.304611,380.411987 206.548584,377.736603 199.038712,374.935486 
	C193.455017,373.362610 188.936707,373.985168 184.755386,376.846344 
	C184.755386,376.846344 184.394516,376.955688 183.965942,377.007080 
	C183.340790,377.329773 183.144226,377.601074 182.947647,377.872375 
M262.514984,207.033676 
	C262.514984,207.033676 263.004059,207.009933 263.730957,207.015152 
	C265.061096,206.496719 266.566956,205.287323 267.692474,205.573547 
	C274.326874,207.260620 276.504242,202.257507 278.637390,198.057083 
	C280.151855,195.074844 280.277283,191.387177 281.487915,187.557343 
	C281.626617,186.706879 281.765320,185.856415 282.002106,184.147537 
	C281.914886,182.427414 281.827637,180.707306 281.793518,178.416306 
	C281.519806,177.948029 281.246124,177.479736 280.975311,176.477646 
	C280.980896,176.299789 280.986511,176.121933 281.480560,175.878967 
	C281.834381,175.635315 282.188202,175.391663 282.542023,175.148010 
	C282.023193,175.137787 281.504333,175.127548 280.846710,174.453278 
	C278.774414,169.959778 276.702118,165.466293 274.673157,160.382294 
	C274.118103,159.955414 273.563049,159.528549 272.596527,158.576401 
	C270.397797,156.379349 268.199066,154.182297 265.973114,151.186325 
	C265.975067,150.119522 265.977051,149.052704 266.181335,147.893494 
	C266.181335,147.893494 266.205261,147.645584 266.205261,147.645584 
	C266.205261,147.645584 266.014709,148.020950 265.388336,148.125214 
	C264.924988,148.755356 264.461609,149.385483 263.457275,149.766296 
	C258.993927,148.168457 254.530563,146.570618 249.838333,144.304703 
	C247.940201,142.467575 246.265808,142.162491 244.485352,145.020279 
	C244.296814,145.015015 244.108276,145.009766 243.787323,144.386108 
	C242.833191,144.580475 241.879074,144.774826 240.190872,144.965302 
	C238.059692,145.307358 235.928528,145.649399 234.222961,145.702744 
	C234.232437,145.338654 234.241898,144.974564 234.251373,144.610474 
	C233.881012,145.079102 233.510635,145.547729 233.064377,146.061996 
	C233.064377,146.061996 233.003983,146.126785 232.427811,146.155441 
	C231.953552,146.441193 231.479279,146.726944 230.353668,147.071732 
	C229.246048,147.685501 228.138428,148.299271 226.522049,148.937744 
	C226.352707,148.949844 226.183365,148.961960 226.004471,149.001572 
	C226.004471,149.001572 226.024292,148.976440 225.889587,148.431778 
	C225.572891,148.135742 225.256195,147.839722 224.939499,147.543686 
	C224.679077,148.030014 224.418655,148.516357 223.891724,149.533875 
	C219.592224,154.076187 215.292725,158.618500 210.393127,163.033844 
	C209.925110,162.686081 209.457077,162.338318 209.387772,161.911331 
	C209.597382,161.780457 209.806992,161.649582 210.016602,161.518692 
	C209.898621,161.478851 209.730011,161.369080 209.671509,161.411423 
	C209.431137,161.585449 209.224243,161.805740 208.491364,162.223083 
	C208.353455,162.347122 208.215546,162.471176 207.815140,161.994080 
	C201.701675,159.126068 201.021515,150.230560 193.232025,149.487701 
	C193.949905,148.436707 194.390335,147.791901 194.771210,147.234299 
	C189.911026,146.069641 185.439728,144.998169 180.905975,143.133133 
	C178.671158,142.511398 176.436356,141.889664 174.099701,141.239609 
	C173.747452,140.058594 173.342010,138.699219 173.162811,138.098434 
	C171.485687,139.186951 170.028198,140.112717 168.592957,141.071762 
	C167.677582,141.683411 166.795151,142.344360 165.502670,143.364929 
	C160.218811,145.695755 153.998215,146.299530 150.311539,151.600967 
	C150.203445,151.756424 149.657608,151.745316 149.391998,151.632538 
	C146.031158,150.205627 145.986664,153.136230 145.175613,154.903717 
	C144.469269,156.443039 144.299149,158.296646 143.370621,159.654892 
	C136.391861,169.863235 134.075745,180.909821 136.483246,193.119476 
	C136.176239,193.440277 135.866592,193.758789 135.577484,194.094986 
	C135.570206,194.103439 135.789474,194.306717 135.903107,194.419128 
	C136.276367,193.955887 136.649643,193.492661 137.560547,193.338333 
	C138.035461,195.065277 138.665939,196.767502 138.945251,198.525528 
	C139.281479,200.642014 139.319260,202.805923 139.439392,204.348022 
	C142.822296,205.082825 147.400421,204.992233 150.583649,207.054611 
	C154.225952,209.414383 156.603134,213.709839 159.591248,217.110458 
	C160.202469,217.806046 161.015442,218.410431 161.853653,218.806824 
	C168.478363,221.939713 175.410980,220.229645 182.193253,219.768555 
	C185.601746,219.536835 189.880142,219.129456 192.102951,217.036346 
	C197.278122,212.163086 201.445755,206.219894 206.386124,201.125092 
	C206.507553,201.908112 206.628967,202.691132 206.942169,204.710953 
	C207.590576,202.941910 207.791382,202.394058 208.634491,202.142975 
	C210.090118,204.169907 211.545761,206.196854 212.522247,207.955292 
	C212.025345,207.748840 211.528427,207.542389 211.031525,207.335938 
	C210.943069,207.569565 210.854614,207.803207 210.766159,208.036835 
	C211.511871,208.281799 212.257568,208.526749 213.570801,209.155319 
	C215.320404,210.873276 216.906815,212.810822 218.856323,214.259842 
	C222.112152,216.679764 225.600143,218.787354 229.469055,221.086578 
	C229.469055,221.086578 229.944153,221.170212 230.373489,221.564362 
	C230.936691,221.710281 231.499878,221.856216 232.207703,222.312225 
	C232.454224,222.212418 232.700745,222.112625 233.670685,222.067642 
	C238.559937,222.658539 243.442963,223.555099 248.342209,223.654999 
	C249.821747,223.685165 251.827255,221.796509 252.747040,220.275833 
	C254.493103,217.389099 255.629257,214.133484 257.628326,210.896179 
	C258.095215,210.270920 258.562103,209.645660 259.528870,208.891739 
	C259.691742,208.836273 259.854584,208.780823 260.621094,208.729034 
	C261.090698,208.163956 261.560272,207.598892 262.003662,207.001221 
	C262.003662,207.001221 262.025391,207.031860 262.514984,207.033676 
M218.343353,270.753143 
	C224.170639,270.321869 229.997940,269.890594 235.904358,268.470947 
	C237.163208,262.101410 232.200302,253.931061 241.483429,249.531555 
	C237.656906,250.198090 234.359436,251.602982 230.925095,252.458191 
	C226.971527,253.442719 222.575638,253.207428 218.939850,254.799286 
	C210.603745,258.449066 201.979568,256.756683 194.207993,255.018051 
	C183.743729,252.677032 173.180435,249.218475 163.892975,242.814865 
	C163.892975,242.814865 163.641388,242.792511 163.641388,242.792511 
	C163.641388,242.792511 164.017334,242.987686 164.014893,243.608154 
	C165.116882,247.760330 168.786026,248.891586 172.101944,250.341171 
	C175.090866,251.647781 178.097977,252.346619 178.340912,256.771301 
	C178.593338,261.368591 179.952881,265.905121 180.915237,270.921478 
	C185.017242,270.921478 189.486740,271.141632 193.924881,270.862640 
	C198.847580,270.553162 200.122971,268.638336 199.279480,263.712311 
	C198.836517,261.125305 198.499390,258.687073 202.009064,257.913910 
	C211.998276,255.713257 216.009903,259.369110 214.608246,269.440155 
	C214.572418,269.697601 214.831039,269.996002 215.005951,270.398682 
	C215.950165,270.268921 216.916550,270.136108 218.343353,270.753143 
z"/>
<path fill="#B69C27" opacity="1.000000" stroke="none" 
	d="
M116.162689,415.723114 
	C125.221321,422.010132 134.279953,428.297150 143.525986,434.714233 
	C148.070953,429.441895 152.101212,421.433258 161.637665,419.377502 
	C162.203827,421.506866 162.044983,423.360779 162.462158,425.074463 
	C162.924713,426.974518 163.737259,430.171631 164.707993,430.291626 
	C167.078506,430.584656 169.628235,429.428009 172.105835,428.854919 
	C172.943039,426.061218 173.780243,423.267487 174.761688,419.992401 
	C181.397888,421.370941 184.373627,426.606079 186.943726,433.125488 
	C185.671982,441.924225 184.347931,449.919739 183.023895,457.915253 
	C183.023895,457.915253 183.052719,458.013245 182.800110,458.178772 
	C182.400635,458.643219 182.253799,458.942139 182.106964,459.241028 
	C180.900085,462.832458 177.983353,463.032837 174.886963,462.887421 
	C172.431473,462.772064 169.975449,462.667999 167.066513,461.940948 
	C166.408524,459.193817 166.295486,457.050873 165.978088,454.938629 
	C165.456207,451.465546 163.947769,451.582336 161.973068,453.984131 
	C161.995560,454.001282 161.992599,453.944763 161.727203,454.014984 
	C161.290222,454.384369 161.118607,454.683563 160.973877,454.990967 
	C161.000778,454.999237 160.983292,454.945740 160.685898,454.972961 
	C160.239975,455.324402 160.091446,455.648651 159.970612,455.984802 
	C159.998322,455.996765 159.984756,455.937958 159.668289,455.853149 
	C158.885803,456.168274 158.419785,456.568207 157.977020,456.983337 
	C158.000275,456.998505 157.979858,456.946869 157.682770,456.973572 
	C157.238174,457.323669 157.090637,457.647064 156.970062,457.984070 
	C156.997040,457.997711 156.984665,457.938568 156.666275,457.859833 
	C155.883087,458.176483 155.418289,458.571869 154.976227,458.983582 
	C154.998978,458.999878 154.990692,458.944519 154.681976,458.928101 
	C153.899353,459.267517 153.425415,459.623352 152.978745,459.984100 
	C153.005997,459.988983 152.972778,459.944641 152.636703,460.012085 
	C150.190308,461.316406 148.079987,462.553223 145.563644,463.889465 
	C141.487015,464.391754 137.816406,464.794708 134.071396,464.844360 
	C130.910858,461.278229 127.824707,458.065399 124.728714,454.559937 
	C124.153816,453.494263 123.588783,452.721222 123.014061,451.975220 
	C123.004379,452.002228 123.058411,451.982849 122.981598,451.653564 
	C121.610825,449.533691 120.316872,447.743073 119.014320,445.978729 
	C119.005714,446.005005 119.056725,445.983612 119.009354,445.617004 
	C114.946869,437.567413 113.247688,429.368835 113.933472,420.761322 
	C114.071114,419.033661 115.388985,417.400085 116.162689,415.723114 
z"/>
<path fill="#B59C28" opacity="1.000000" stroke="none" 
	d="
M199.992554,445.964020 
	C198.901459,436.576080 201.738892,428.736389 209.457184,423.070923 
	C211.057175,421.896515 213.335358,421.646027 216.055420,421.092621 
	C217.251724,422.214661 217.985474,423.184631 218.088837,424.217651 
	C218.855133,431.875580 220.623596,432.924622 228.602188,430.033630 
	C229.389465,429.289032 230.123871,428.599701 230.197495,427.845886 
	C230.378952,425.988281 230.256927,424.100983 230.256927,421.656189 
	C233.067749,422.731171 234.565125,423.303864 236.062500,423.876526 
	C236.062500,423.876495 236.081223,423.952240 236.239807,424.210999 
	C237.269043,424.972321 238.139664,425.474915 239.010284,425.977539 
	C239.010284,425.977539 239.000717,426.002594 239.097702,426.275635 
	C239.699799,426.824127 240.204910,427.099548 240.710022,427.375000 
	C240.710022,427.375000 240.653061,427.436188 240.758728,427.752502 
	C241.032227,428.599640 241.200073,429.130463 241.561035,430.272064 
	C242.348755,428.557526 242.861298,427.441956 243.373840,426.326385 
	C243.373840,426.326385 243.138428,425.967224 243.538452,425.985657 
	C246.259125,423.594299 248.579773,421.184540 251.194183,418.646912 
	C252.970383,417.330231 254.452850,416.141418 255.935318,414.952606 
	C255.935318,414.952606 255.978943,415.005310 256.357117,414.945404 
	C258.551910,414.544708 260.368561,414.203888 261.921722,413.912537 
	C261.921722,418.385742 261.921722,422.259979 261.788940,426.446625 
	C261.438263,427.849884 261.220367,428.940735 260.669098,430.191162 
	C259.539154,433.567108 258.742554,436.783417 257.973236,440.000061 
	C258.000549,440.000397 257.969269,439.955627 257.666565,440.134399 
	C257.222107,441.206238 257.080353,442.099243 256.968567,442.994141 
	C256.998505,442.996002 256.958069,442.951630 256.626953,443.020752 
	C256.177032,443.722992 256.058197,444.356110 255.968842,444.993408 
	C255.998306,444.997589 255.961121,444.951111 255.631561,445.028046 
	C255.180710,445.732025 255.059418,446.359100 254.967804,446.991638 
	C254.997482,446.997162 254.969955,446.943390 254.674301,446.935181 
	C254.235382,447.280212 254.092133,447.633453 253.974274,447.994141 
	C253.999649,448.001587 253.975861,447.954376 253.704910,448.106079 
	C253.270950,448.836823 253.107925,449.415802 252.972229,449.998352 
	C252.999557,450.001923 252.973419,449.953430 252.651459,450.132324 
	C252.190338,451.020355 252.051193,451.729553 251.697906,452.659851 
	C247.315842,457.631775 243.147919,462.382538 238.979996,467.133331 
	C236.159531,465.733337 233.241394,464.494690 230.557053,462.869812 
	C229.066177,461.967377 227.965500,460.420380 226.216095,458.814301 
	C223.936127,456.538971 222.129044,454.613251 220.321945,452.687500 
	C219.881058,452.971283 219.440186,453.255035 218.999313,453.538818 
	C218.999313,455.788116 218.999313,458.037415 218.999313,460.286682 
	C217.288345,460.902008 215.605408,461.946716 213.861740,462.060516 
	C204.860443,462.647797 203.626709,461.607330 201.472702,452.256622 
	C201.034363,450.353729 200.802155,448.403381 200.213608,446.207672 
	C199.952286,445.940430 199.992554,445.964020 199.992554,445.964020 
z"/>
<path fill="#84521B" opacity="1.000000" stroke="none" 
	d="
M261.002441,430.031586 
	C261.220367,428.940735 261.438263,427.849884 262.089264,426.194092 
	C263.036224,422.736359 263.341736,419.783356 264.152710,416.976410 
	C264.553284,415.589874 265.886322,414.472717 266.797424,413.233673 
	C280.805603,420.086456 284.332794,432.740326 284.996948,446.744598 
	C285.526398,457.908386 280.738647,464.005859 269.501160,466.184967 
	C262.065063,467.626892 254.444565,468.117950 246.467987,469.031067 
	C246.029358,469.027435 246.057449,469.052490 246.057449,469.052490 
	C243.868729,468.600220 241.680008,468.147980 239.235626,467.414520 
	C243.147919,462.382538 247.315842,457.631775 251.959961,452.414429 
	C252.615234,451.283081 252.794342,450.618256 252.973419,449.953430 
	C252.973419,449.953430 252.999557,450.001923 253.269424,449.878693 
	C253.684814,449.155090 253.830338,448.554749 253.975861,447.954376 
	C253.975861,447.954376 253.999649,448.001587 254.250534,447.956299 
	C254.657593,447.588501 254.813766,447.265930 254.969940,446.943390 
	C254.969955,446.943390 254.997482,446.997162 255.244568,446.847198 
	C255.648132,446.115204 255.804626,445.533142 255.961121,444.951111 
	C255.961121,444.951111 255.998306,444.997589 256.247223,444.850037 
	C256.650116,444.118835 256.804077,443.535248 256.958069,442.951630 
	C256.958069,442.951630 256.998505,442.996002 257.257568,442.803864 
	C257.667480,441.726349 257.818359,440.841003 257.969269,439.955627 
	C257.969269,439.955627 258.000549,440.000397 258.297180,439.830627 
	C259.396667,436.451111 260.199554,433.241364 261.002441,430.031586 
z"/>
<path fill="#84521B" opacity="1.000000" stroke="none" 
	d="
M124.738556,454.852539 
	C127.824707,458.065399 130.910858,461.278229 134.369736,465.056335 
	C135.752502,465.753204 136.762558,465.884857 137.772598,466.016510 
	C137.646454,466.183319 137.520294,466.350128 136.821793,466.752228 
	C134.833755,467.344543 133.418091,467.701599 132.002411,468.058655 
	C131.558563,468.048737 131.114716,468.038818 129.876816,468.015656 
	C124.386017,468.033112 119.689262,468.063812 114.992516,468.094543 
	C100.748573,469.377686 94.024193,458.992188 94.631645,441.355652 
	C94.784531,442.476868 94.937408,443.598053 95.206680,445.572876 
	C96.010323,438.221893 96.304611,431.719177 97.565407,425.409607 
	C98.336418,421.551208 99.730316,416.987976 102.470100,414.630768 
	C104.444214,412.932312 109.099358,414.350006 112.769295,415.049744 
	C110.845161,424.114716 112.139709,432.243866 115.177872,440.131134 
	C115.999283,442.263580 117.738686,444.042450 119.056725,445.983612 
	C119.056725,445.983612 119.005714,446.005005 118.972534,446.346741 
	C120.312378,448.453308 121.685387,450.218079 123.058411,451.982849 
	C123.058411,451.982849 123.004379,452.002228 122.965324,452.302124 
	C123.530365,453.352173 124.134460,454.102356 124.738556,454.852539 
z"/>
<path fill="#524E51" opacity="1.000000" stroke="none" 
	d="
M105.667252,238.198029 
	C106.354637,239.385345 106.685349,240.818619 107.021523,243.102173 
	C107.006233,256.237274 106.948921,268.522156 106.972084,280.806915 
	C107.025604,309.190826 107.118141,337.574707 107.194855,365.958588 
	C107.156960,366.145538 107.119057,366.332489 106.993057,366.791809 
	C106.289101,366.114716 105.136848,365.166534 105.134537,364.215576 
	C105.033180,322.609253 105.032837,281.002716 105.033485,239.396194 
	C105.033493,239.078796 105.214241,238.761398 105.667252,238.198029 
z"/>
<path fill="#A9AEBC" opacity="1.000000" stroke="none" 
	d="
M219.916000,415.944153 
	C219.623581,408.576599 219.331146,401.209045 219.444656,393.456360 
	C222.213898,393.559631 224.577209,394.048035 227.341080,394.382812 
	C228.064804,397.037140 228.537567,399.837830 228.674423,402.654785 
	C228.858505,406.443451 228.783417,410.244720 228.450989,414.048676 
	C225.360275,414.685913 222.638138,415.315033 219.916000,415.944153 
z"/>
<path fill="#E6DDDB" opacity="1.000000" stroke="none" 
	d="
M219.615967,416.124420 
	C222.638138,415.315033 225.360275,414.685913 228.532379,414.505768 
	C228.737778,419.989685 228.493210,425.024597 228.248642,430.059540 
	C220.623596,432.924622 218.855133,431.875580 218.088837,424.217651 
	C217.985474,423.184631 217.251724,422.214661 216.448822,421.040497 
	C217.163818,419.345215 218.239868,417.824951 219.615967,416.124420 
z"/>
<path fill="#585458" opacity="1.000000" stroke="none" 
	d="
M298.754517,208.045929 
	C298.787689,207.854889 298.820831,207.663849 298.966278,207.204330 
	C299.730011,208.116776 300.944275,209.295975 300.947876,210.478851 
	C300.996033,226.283600 300.897247,242.089005 300.784698,257.893890 
	C300.740936,264.040314 300.570923,270.185883 300.051605,276.299927 
	C299.518219,270.624908 299.339783,264.982330 299.274750,259.338440 
	C299.077759,242.241211 298.924683,225.143478 298.754517,208.045929 
z"/>
<path fill="#DCD3D1" opacity="1.000000" stroke="none" 
	d="
M172.120850,428.433716 
	C169.628235,429.428009 167.078506,430.584656 164.707993,430.291626 
	C163.737259,430.171631 162.924713,426.974518 162.462158,425.074463 
	C162.044983,423.360779 162.203827,421.506866 161.989288,419.264740 
	C162.359497,418.554047 162.849045,418.293365 164.030838,418.024841 
	C167.456528,418.010895 170.189972,418.004791 172.923401,417.998688 
	C172.660889,421.336609 172.398376,424.674561 172.120850,428.433716 
z"/>
<path fill="#3B3539" opacity="1.000000" stroke="none" 
	d="
M169.077637,383.048523 
	C172.804977,381.694397 176.532318,380.340240 180.629150,378.983612 
	C180.774261,379.565094 180.664505,380.573639 180.308441,380.669708 
	C174.366684,382.273499 174.605637,386.797058 174.789780,391.566528 
	C175.056519,398.475739 175.065353,405.398651 174.994339,412.313721 
	C174.981552,413.557953 174.052933,414.792786 173.251740,415.524780 
	C172.956299,412.411957 172.956299,409.806305 172.956299,407.662994 
	C169.701355,407.247192 166.816101,406.878632 163.930862,406.510071 
	C163.930862,406.510040 163.747452,406.237823 164.312195,406.063599 
	C165.536041,405.942810 166.194199,406.016754 166.854355,406.046265 
	C170.337311,406.201996 173.235275,406.335114 173.405273,401.178192 
	C173.573914,396.062531 171.357224,394.852997 167.041031,395.133484 
	C166.083908,395.195679 165.119278,395.142609 164.183105,395.142609 
	C163.722092,397.568848 163.301270,399.783539 162.880447,401.998230 
	C162.676498,399.093109 162.472549,396.188019 162.820709,392.971191 
	C170.908752,396.202209 173.161377,394.518677 172.770706,385.855164 
	C171.460159,384.859161 170.268906,383.953857 169.077637,383.048523 
z"/>
<path fill="#C2C790" opacity="1.000000" stroke="none" 
	d="
M226.940521,394.536438 
	C224.577209,394.048035 222.213898,393.559631 219.528122,393.010193 
	C219.375076,389.910522 219.544510,386.871826 219.887299,383.460266 
	C222.170837,383.244843 224.281006,383.402313 226.716385,383.698425 
	C227.041580,383.837036 227.457489,383.952698 227.837219,384.364929 
	C227.791473,388.030243 227.365997,391.283356 226.940521,394.536438 
z"/>
<path fill="#A9AEBC" opacity="1.000000" stroke="none" 
	d="
M163.593414,406.799316 
	C166.816101,406.878632 169.701355,407.247192 172.956299,407.662994 
	C172.956299,409.806305 172.956299,412.411957 172.919678,415.465271 
	C172.908585,416.426422 172.934113,416.939941 172.941528,417.726074 
	C170.189972,418.004791 167.456528,418.010895 164.332611,417.990662 
	C163.713409,414.339081 163.484680,410.713837 163.593414,406.799316 
z"/>
<path fill="#C2C790" opacity="1.000000" stroke="none" 
	d="
M168.768890,383.135559 
	C170.268906,383.953857 171.460159,384.859161 172.770706,385.855164 
	C173.161377,394.518677 170.908752,396.202209 163.012039,392.531677 
	C162.713547,389.862335 162.775833,387.320831 163.238831,384.353760 
	C164.436920,383.910187 165.234329,383.892120 166.031723,383.874054 
	C166.841202,383.656891 167.650665,383.439728 168.768890,383.135559 
z"/>
<path fill="#A9AEBC" opacity="1.000000" stroke="none" 
	d="
M162.934967,402.350769 
	C163.301270,399.783539 163.722092,397.568848 164.183105,395.142609 
	C165.119278,395.142609 166.083908,395.195679 167.041031,395.133484 
	C171.357224,394.852997 173.573914,396.062531 173.405273,401.178192 
	C173.235275,406.335114 170.337311,406.201996 166.854355,406.046265 
	C166.194199,406.016754 165.536041,405.942810 164.434219,405.953796 
	C163.657486,404.913269 163.323471,403.808319 162.934967,402.350769 
z"/>
<path fill="#DBE9FE" opacity="1.000000" stroke="none" 
	d="
M298.539978,208.392975 
	C298.924683,225.143478 299.077759,242.241211 299.274750,259.338440 
	C299.339783,264.982330 299.518219,270.624908 299.817963,276.636475 
	C299.968170,278.405487 299.945190,279.806061 299.846100,281.621704 
	C299.186157,281.550018 298.091492,281.062927 298.091858,280.576660 
	C298.110504,256.631073 298.223175,232.685532 298.539978,208.392975 
z"/>
<path fill="#1F1610" opacity="1.000000" stroke="none" 
	d="
M227.341095,394.382812 
	C227.365997,391.283356 227.791473,388.030243 228.046127,384.419220 
	C228.328857,384.039642 228.782425,384.018005 229.616821,384.439972 
	C230.000031,396.255768 230.002380,407.627991 230.004730,419.000214 
	C231.980133,420.404938 233.955536,421.809662 235.996719,423.545471 
	C234.565125,423.303864 233.067749,422.731171 230.256927,421.656189 
	C230.256927,424.100983 230.378952,425.988281 230.197495,427.845886 
	C230.123871,428.599701 229.389465,429.289032 228.602188,430.033630 
	C228.493210,425.024597 228.737778,419.989685 228.900970,414.497650 
	C228.783417,410.244720 228.858505,406.443451 228.674423,402.654785 
	C228.537567,399.837830 228.064804,397.037140 227.341095,394.382812 
z"/>
<path fill="#84521B" opacity="1.000000" stroke="none" 
	d="
M164.886887,461.915863 
	C161.171356,462.063812 157.455811,462.211761 153.379486,461.840698 
	C153.003387,460.862640 152.988083,460.403625 152.972778,459.944641 
	C152.972778,459.944641 153.005997,459.988983 153.299530,460.013794 
	C154.058945,459.673889 154.524811,459.309204 154.990692,458.944519 
	C154.990692,458.944519 154.998978,458.999878 155.290558,459.011108 
	C156.049652,458.661041 156.517151,458.299805 156.984665,457.938568 
	C156.984665,457.938568 156.997040,457.997711 157.242706,457.932373 
	C157.652191,457.560333 157.816025,457.253601 157.979858,456.946869 
	C157.979858,456.946869 158.000275,456.998505 158.292389,457.011841 
	C159.051254,456.662781 159.518005,456.300354 159.984756,455.937958 
	C159.984756,455.937958 159.998322,455.996765 160.233948,455.920288 
	C160.640808,455.544464 160.812042,455.245087 160.983276,454.945740 
	C160.983292,454.945740 161.000778,454.999237 161.245239,454.932190 
	C161.657349,454.558350 161.824982,454.251556 161.992615,453.944763 
	C161.992599,453.944763 161.995560,454.001282 162.328369,454.108948 
	C163.403076,456.783051 164.144989,459.349457 164.886887,461.915863 
z"/>
<path fill="#382717" opacity="1.000000" stroke="none" 
	d="
M119.009354,445.617004 
	C117.738686,444.042450 115.999283,442.263580 115.177872,440.131134 
	C112.139709,432.243866 110.845161,424.114716 113.061646,415.299866 
	C114.215134,415.005035 115.286896,415.131989 116.260674,415.491028 
	C115.388985,417.400085 114.071114,419.033661 113.933472,420.761322 
	C113.247688,429.368835 114.946869,437.567413 119.009354,445.617004 
z"/>
<path fill="#585458" opacity="1.000000" stroke="none" 
	d="
M220.975601,84.483940 
	C212.000000,84.884636 202.913635,84.882904 193.349762,84.856880 
	C193.629532,84.195381 194.380829,83.013252 195.145035,83.004837 
	C203.227692,82.915886 211.312622,82.996094 219.395950,83.103622 
	C219.889832,83.110191 220.375397,83.741096 220.975601,84.483940 
z"/>
<path fill="#B59C28" opacity="1.000000" stroke="none" 
	d="
M183.238647,457.835571 
	C184.347931,449.919739 185.671982,441.924225 186.994904,433.478516 
	C187.425827,436.210266 188.667786,439.542847 188.110138,442.540649 
	C187.146347,447.721863 185.065582,452.695282 183.238647,457.835571 
z"/>
<path fill="#524E51" opacity="1.000000" stroke="none" 
	d="
M300.855469,325.022614 
	C300.564697,321.946838 300.273926,318.871033 300.329651,315.041656 
	C300.780640,303.860901 300.885132,293.433777 300.989624,283.006622 
	C301.303833,284.390350 301.885620,285.773193 301.890472,287.157990 
	C301.933075,299.408966 301.873291,311.660309 301.604614,324.448486 
	C301.195404,324.997833 301.025421,325.010223 300.855469,325.022614 
z"/>
<path fill="#382717" opacity="1.000000" stroke="none" 
	d="
M266.658447,412.880402 
	C265.886322,414.472717 264.553284,415.589874 264.152710,416.976410 
	C263.341736,419.783356 263.036224,422.736359 262.222046,425.881653 
	C261.921722,422.259979 261.921722,418.385742 261.921722,413.912537 
	C260.368561,414.203888 258.551910,414.544708 256.349976,414.911987 
	C259.040649,410.657043 262.204803,409.934143 266.658447,412.880402 
z"/>
<path fill="#84521B" opacity="1.000000" stroke="none" 
	d="
M219.234985,460.550537 
	C218.999313,458.037415 218.999313,455.788116 218.999313,453.538818 
	C219.440186,453.255035 219.881058,452.971283 220.321945,452.687500 
	C222.129044,454.613251 223.936127,456.538971 225.878952,458.784729 
	C223.833344,459.674652 221.652008,460.244507 219.234985,460.550537 
z"/>
<path fill="#3B3539" opacity="1.000000" stroke="none" 
	d="
M230.318924,418.719543 
	C230.002380,407.627991 230.000031,396.255768 229.956085,384.410095 
	C230.281097,384.268585 230.969788,384.602539 230.967682,384.932129 
	C230.896759,396.101318 230.760193,407.270050 230.318924,418.719543 
z"/>
<path fill="#524E51" opacity="1.000000" stroke="none" 
	d="
M301.913422,338.957855 
	C302.269989,339.648926 302.938202,340.340942 302.936157,341.030945 
	C302.907196,350.826721 302.787384,360.622223 302.333466,370.225464 
	C301.956085,359.674744 301.934753,349.316284 301.913422,338.957855 
z"/>
<path fill="#1F1610" opacity="1.000000" stroke="none" 
	d="
M300.797485,282.978516 
	C300.885132,293.433777 300.780640,303.860901 300.411560,314.600891 
	C300.098541,304.571869 300.050140,294.229980 300.109558,283.427917 
	C300.217377,282.967712 300.605377,282.950378 300.797485,282.978516 
z"/>
<path fill="#1F1610" opacity="1.000000" stroke="none" 
	d="
M301.738831,338.943604 
	C301.934753,349.316284 301.956085,359.674744 302.014465,370.497131 
	C301.850281,370.970062 301.649109,370.979034 301.146484,370.966064 
	C300.845032,370.944122 300.941010,370.463104 300.978058,369.764282 
	C300.946106,360.052155 300.877106,351.038910 300.808075,342.025635 
	C300.869232,341.252930 300.930420,340.480194 301.103516,339.334534 
	C301.215393,338.961609 301.564240,338.929382 301.738831,338.943604 
z"/>
<path fill="#1F1610" opacity="1.000000" stroke="none" 
	d="
M115.270035,468.351715 
	C119.689262,468.063812 124.386017,468.033112 129.546371,468.060303 
	C125.296120,471.433929 120.434929,470.407532 115.270035,468.351715 
z"/>
<path fill="#3B3539" opacity="1.000000" stroke="none" 
	d="
M185.192673,376.869232 
	C188.936707,373.985168 193.455017,373.362610 198.662598,374.957275 
	C194.570221,375.700592 190.100082,376.296356 185.192673,376.869232 
z"/>
<path fill="#382717" opacity="1.000000" stroke="none" 
	d="
M165.207230,461.955383 
	C164.144989,459.349457 163.403076,456.783051 162.305878,454.091797 
	C163.947769,451.582336 165.456207,451.465546 165.978088,454.938629 
	C166.295486,457.050873 166.408524,459.193817 166.712616,461.713654 
	C166.383789,462.067841 165.955673,462.031372 165.207230,461.955383 
z"/>
<path fill="#1F1610" opacity="1.000000" stroke="none" 
	d="
M250.900421,418.774780 
	C248.579773,421.184540 246.259125,423.594299 243.663925,426.161316 
	C245.334061,423.640717 247.278748,420.962860 249.723633,418.204987 
	C250.511917,418.276489 250.737442,418.493073 250.900421,418.774780 
z"/>
<path fill="#1F1610" opacity="1.000000" stroke="none" 
	d="
M138.075882,466.060669 
	C136.762558,465.884857 135.752502,465.753204 134.444122,465.409607 
	C137.816406,464.794708 141.487015,464.391754 145.563797,464.191162 
	C145.981216,464.593903 145.992477,464.794373 146.003754,464.994873 
	C143.462219,465.364868 140.920700,465.734833 138.075882,466.060669 
z"/>
<path fill="#382717" opacity="1.000000" stroke="none" 
	d="
M146.331268,464.882294 
	C145.992477,464.794373 145.981216,464.593903 145.969803,464.091766 
	C148.079987,462.553223 150.190308,461.316406 152.636703,460.012085 
	C152.988083,460.403625 153.003387,460.862640 153.016693,461.670319 
	C150.896042,462.935913 148.777405,463.852814 146.331268,464.882294 
z"/>
<path fill="#1F1610" opacity="1.000000" stroke="none" 
	d="
M132.268921,468.297546 
	C133.418091,467.701599 134.833755,467.344543 136.630066,467.000549 
	C135.518951,467.521210 134.027191,468.028839 132.268921,468.297546 
z"/>
<path fill="#382717" opacity="1.000000" stroke="none" 
	d="
M251.194183,418.646912 
	C250.737442,418.493073 250.511917,418.276489 250.001160,418.033417 
	C251.593460,416.941254 253.408432,415.940674 255.579361,414.946350 
	C254.452850,416.141418 252.970383,417.330231 251.194183,418.646912 
z"/>
<path fill="#3B3539" opacity="1.000000" stroke="none" 
	d="
M165.934540,383.541840 
	C165.234329,383.892120 164.436920,383.910187 163.241486,383.958679 
	C162.565842,383.556885 162.288223,383.124603 161.970276,382.422302 
	C163.232422,382.504730 164.534882,382.857178 165.934540,383.541840 
z"/>
<path fill="#84521B" opacity="1.000000" stroke="none" 
	d="
M246.021133,469.012268 
	C244.543533,469.305542 243.074158,469.613983 241.604782,469.922424 
	C241.570175,469.692139 241.535553,469.461853 241.500946,469.231567 
	C242.766953,469.172852 244.032959,469.114136 245.678223,469.053955 
	C246.057449,469.052490 246.029358,469.027435 246.021133,469.012268 
z"/>
<path fill="#1F1610" opacity="1.000000" stroke="none" 
	d="
M242.993408,426.315186 
	C242.861298,427.441956 242.348755,428.557526 241.561035,430.272064 
	C241.200073,429.130463 241.032227,428.599640 240.772430,427.791931 
	C241.324661,427.111389 241.968826,426.707703 242.993408,426.315186 
z"/>
<path fill="#524E51" opacity="1.000000" stroke="none" 
	d="
M301.136444,332.685669 
	C300.841187,331.154724 300.689209,329.301392 300.813660,327.520081 
	C301.190247,328.713806 301.290375,329.835480 301.390533,330.957184 
	C301.353607,331.425903 301.316681,331.894592 301.136444,332.685669 
z"/>
<path fill="#1F1610" opacity="1.000000" stroke="none" 
	d="
M301.559784,330.621704 
	C301.290375,329.835480 301.190247,328.713806 300.952576,327.190918 
	C300.790985,326.395386 300.766907,326.001038 300.799133,325.314636 
	C301.025421,325.010223 301.195404,324.997833 301.607880,324.906311 
	C301.809906,326.646851 301.769470,328.466553 301.559784,330.621704 
z"/>
<path fill="#1F1610" opacity="1.000000" stroke="none" 
	d="
M238.966003,425.643311 
	C238.139664,425.474915 237.269043,424.972321 236.272858,424.190216 
	C237.072098,424.376862 237.996902,424.842987 238.966003,425.643311 
z"/>
<path fill="#B59C28" opacity="1.000000" stroke="none" 
	d="
M199.937561,445.921631 
	C199.849579,446.460358 199.776337,447.017853 199.703094,447.575348 
	C199.622665,447.562469 199.542236,447.549591 199.461792,447.536743 
	C199.533783,447.121002 199.605774,446.705292 199.835175,446.126770 
	C199.992554,445.964020 199.952286,445.940430 199.937561,445.921631 
z"/>
<path fill="#3B3539" opacity="1.000000" stroke="none" 
	d="
M183.018799,378.118347 
	C183.144226,377.601074 183.340790,377.329773 183.808258,377.110443 
	C183.749420,377.563019 183.419678,377.963654 183.018799,378.118347 
z"/>
<path fill="#1F1610" opacity="1.000000" stroke="none" 
	d="
M240.676239,427.059967 
	C240.204910,427.099548 239.699799,426.824127 239.109161,426.268127 
	C239.563248,426.240051 240.102844,426.492493 240.676239,427.059967 
z"/>
<path fill="#1F1610" opacity="1.000000" stroke="none" 
	d="
M139.525360,467.546631 
	C139.471375,467.577484 139.579346,467.515778 139.525360,467.546631 
z"/>
<path fill="#1F1610" opacity="1.000000" stroke="none" 
	d="
M301.304077,333.914703 
	C301.084564,333.841888 301.012054,333.665985 301.035522,333.221344 
	C301.237976,333.238953 301.344513,333.525269 301.304077,333.914703 
z"/>
<path fill="#B59C28" opacity="1.000000" stroke="none" 
	d="
M182.337555,459.114990 
	C182.253799,458.942139 182.400635,458.643219 182.752487,458.197266 
	C182.827698,458.363129 182.697906,458.676056 182.337555,459.114990 
z"/>
<path fill="#1F1610" opacity="1.000000" stroke="none" 
	d="
M301.346619,336.914001 
	C301.134033,336.846802 301.060425,336.676575 301.079712,336.243896 
	C301.276947,336.257996 301.381287,336.534485 301.346619,336.914001 
z"/>
<path fill="#FAFBFC" opacity="1.000000" stroke="none" 
	d="
M281.740387,178.987183 
	C281.827637,180.707306 281.914886,182.427414 281.651855,184.641571 
	C281.208588,186.095200 281.115601,187.054764 281.022644,188.014343 
	C280.277283,191.387177 280.151855,195.074844 278.637390,198.057083 
	C276.504242,202.257507 274.326874,207.260620 267.692474,205.573547 
	C266.566956,205.287323 265.061096,206.496719 263.269348,206.870758 
	C262.546936,206.828186 262.286163,206.930023 262.025391,207.031860 
	C262.025391,207.031860 262.003662,207.001221 261.722107,207.051392 
	C260.966156,207.642838 260.491821,208.184097 260.017456,208.725357 
	C259.854584,208.780823 259.691742,208.836273 258.962708,209.006149 
	C257.937286,209.757401 257.478027,210.394241 257.018738,211.031082 
	C255.629257,214.133484 254.493103,217.389099 252.747040,220.275833 
	C251.827255,221.796509 249.821747,223.685165 248.342209,223.654999 
	C243.442963,223.555099 238.559937,222.658539 233.088211,222.035950 
	C232.505737,222.004272 232.063080,222.002136 232.063080,222.002136 
	C231.499878,221.856216 230.936691,221.710281 230.096146,221.194183 
	C229.542664,220.891464 229.266525,220.958954 228.990402,221.026428 
	C225.600143,218.787354 222.112152,216.679764 218.856323,214.259842 
	C216.906815,212.810822 215.320404,210.873276 213.286072,208.827728 
	C213.001343,208.500153 213.001389,208.223785 213.001389,208.223785 
	C211.545761,206.196854 210.090118,204.169907 208.307358,201.697952 
	C207.736389,200.696045 207.492554,200.139160 207.248718,199.582275 
	C206.839691,199.958267 206.430664,200.334244 206.021606,200.710220 
	C201.445755,206.219894 197.278122,212.163086 192.102951,217.036346 
	C189.880142,219.129456 185.601746,219.536835 182.193253,219.768555 
	C175.410980,220.229645 168.478363,221.939713 161.853653,218.806824 
	C161.015442,218.410431 160.202469,217.806046 159.591248,217.110458 
	C156.603134,213.709839 154.225952,209.414383 150.583649,207.054611 
	C147.400421,204.992233 142.822296,205.082825 139.439392,204.348022 
	C139.319260,202.805923 139.281479,200.642014 138.945251,198.525528 
	C138.665939,196.767502 138.035461,195.065277 137.282120,193.171860 
	C137.003693,193.005386 136.980545,192.985733 136.980545,192.985733 
	C134.075745,180.909821 136.391861,169.863235 143.370621,159.654892 
	C144.299149,158.296646 144.469269,156.443039 145.175613,154.903717 
	C145.986664,153.136230 146.031158,150.205627 149.391998,151.632538 
	C149.657608,151.745316 150.203445,151.756424 150.311539,151.600967 
	C153.998215,146.299530 160.218811,145.695755 165.895386,143.537247 
	C171.181534,143.781937 176.074982,143.854324 180.968430,143.926712 
	C185.439728,144.998169 189.911026,146.069641 194.771210,147.234299 
	C194.390335,147.791901 193.949905,148.436707 193.232025,149.487701 
	C201.021515,150.230560 201.701675,159.126068 207.915634,162.612350 
	C208.823044,166.896805 209.629974,170.562988 210.436890,174.229172 
	C210.622330,174.127441 210.807770,174.025711 210.993210,173.923996 
	C210.993210,170.336273 210.993210,166.748535 210.993210,163.160812 
	C215.292725,158.618500 219.592224,154.076187 224.334351,149.266418 
	C225.192734,148.991440 225.608521,148.983932 226.024292,148.976440 
	C226.024292,148.976440 226.004471,149.001572 226.109039,149.135681 
	C226.486008,149.150894 226.758408,149.031967 227.030807,148.913040 
	C228.138428,148.299271 229.246048,147.685501 230.857239,147.236450 
	C231.908524,146.976379 232.456253,146.551575 233.003983,146.126770 
	C233.003983,146.126785 233.064377,146.061996 233.265930,146.032227 
	C233.467499,146.002457 233.797348,145.991455 233.797348,145.991455 
	C235.928528,145.649399 238.059692,145.307358 240.934433,144.977661 
	C242.425247,144.994858 243.172501,144.999680 243.919754,145.004501 
	C244.108276,145.009766 244.296814,145.015015 245.183243,145.010925 
	C247.276489,144.991974 248.671860,144.982376 250.067215,144.972778 
	C254.530563,146.570618 258.993927,148.168457 263.786133,150.199326 
	C264.743408,151.083328 265.371887,151.534286 266.000336,151.985245 
	C268.199066,154.182297 270.397797,156.379349 272.846497,159.110016 
	C273.607574,160.086685 274.118683,160.529739 274.629822,160.972794 
	C276.702118,165.466293 278.774414,169.959778 280.919678,174.991425 
	C280.992676,175.529587 280.992096,175.944092 280.992096,175.944092 
	C280.986511,176.121933 280.980896,176.299789 280.784271,176.914902 
	C280.975616,177.897156 281.358002,178.442169 281.740387,178.987183 
M231.397278,188.543152 
	C231.641571,189.386368 231.885849,190.229599 232.527832,191.615311 
	C236.313843,193.389267 240.099854,195.163208 244.574448,196.962067 
	C245.379501,196.378616 246.184555,195.795166 247.609680,195.035141 
	C248.374435,194.694183 249.139175,194.353241 250.540390,193.904053 
	C251.028259,193.286957 251.516129,192.669861 252.424561,191.433228 
	C255.347137,187.546799 254.793762,183.223801 253.908279,178.332764 
	C253.393265,177.893600 252.878235,177.454422 252.002411,176.375717 
	C249.580887,174.793304 247.159363,173.210907 244.229507,171.279800 
	C242.824066,171.788834 241.418640,172.297867 239.322601,173.037796 
	C234.220413,174.743835 231.110916,177.752563 232.031815,183.663742 
	C232.255173,185.097504 231.874664,186.625366 231.397278,188.543152 
M176.593246,195.275909 
	C178.093643,194.255096 179.642426,193.297913 181.085114,192.201172 
	C184.912018,189.291855 186.812347,181.042786 184.663315,176.913406 
	C182.587250,172.924225 175.959671,170.759689 170.526855,172.296539 
	C167.386108,173.184967 162.949036,179.184341 163.317001,182.357956 
	C164.560944,193.086395 165.672867,195.180084 176.593246,195.275909 
M210.381607,187.003952 
	C215.343536,186.692749 212.258667,182.918823 212.872940,180.813416 
	C213.163132,179.818802 212.099457,178.429199 211.553055,176.959991 
	C211.015991,180.838150 210.636292,183.580093 210.381607,187.003952 
M209.643890,193.245834 
	C208.967896,194.632324 208.291885,196.018829 207.615891,197.405319 
	C208.177994,197.635086 208.740097,197.864868 209.302200,198.094635 
	C210.241119,195.797974 211.180054,193.501297 212.118973,191.204636 
	C211.765549,191.036194 211.412140,190.867752 211.058716,190.699310 
	C210.676331,191.347107 210.293945,191.994888 209.643890,193.245834 
z"/>
<path fill="#F3F5F5" opacity="1.000000" stroke="none" 
	d="
M163.988190,243.017349 
	C173.180435,249.218475 183.743729,252.677032 194.207993,255.018051 
	C201.979568,256.756683 210.603745,258.449066 218.939850,254.799286 
	C222.575638,253.207428 226.971527,253.442719 230.925095,252.458191 
	C234.359436,251.602982 237.656906,250.198090 241.483429,249.531555 
	C232.200302,253.931061 237.163208,262.101410 235.551331,269.195435 
	C229.426514,269.947723 223.654724,269.975525 217.882935,270.003296 
	C216.916550,270.136108 215.950165,270.268921 215.005951,270.398682 
	C214.831039,269.996002 214.572418,269.697601 214.608246,269.440155 
	C216.009903,259.369110 211.998276,255.713257 202.009064,257.913910 
	C198.499390,258.687073 198.836517,261.125305 199.279480,263.712311 
	C200.122971,268.638336 198.847580,270.553162 193.924881,270.862640 
	C189.486740,271.141632 185.017242,270.921478 180.915237,270.921478 
	C179.952881,265.905121 178.593338,261.368591 178.340912,256.771301 
	C178.097977,252.346619 175.090866,251.647781 172.101944,250.341171 
	C168.786026,248.891586 165.116882,247.760330 164.007660,243.304199 
	C164.000443,243.000244 163.988190,243.017349 163.988190,243.017349 
z"/>
<path fill="#DBE9FE" opacity="1.000000" stroke="none" 
	d="
M107.426620,365.621124 
	C107.118141,337.574707 107.025604,309.190826 106.972084,280.806915 
	C106.948921,268.522156 107.006233,256.237274 107.099838,243.489395 
	C107.447334,244.463257 107.960190,245.899887 107.961884,247.337112 
	C108.007011,285.667145 108.002068,323.997223 107.986603,362.327301 
	C107.986206,363.312775 107.772575,364.298218 107.426620,365.621124 
z"/>
<path fill="#585458" opacity="1.000000" stroke="none" 
	d="
M180.937195,143.529922 
	C176.074982,143.854324 171.181534,143.781937 166.093018,143.346390 
	C166.795151,142.344360 167.677582,141.683411 168.592957,141.071762 
	C170.028198,140.112717 171.485687,139.186951 173.162811,138.098434 
	C173.342010,138.699219 173.747452,140.058594 174.099701,141.239609 
	C176.436356,141.889664 178.671158,142.511398 180.937195,143.529922 
z"/>
<path fill="#585458" opacity="1.000000" stroke="none" 
	d="
M218.113144,270.378235 
	C223.654724,269.975525 229.426514,269.947723 235.511765,269.689636 
	C229.997940,269.890594 224.170639,270.321869 218.113144,270.378235 
z"/>
<path fill="#DBE9FE" opacity="1.000000" stroke="none" 
	d="
M300.585266,342.369751 
	C300.877106,351.038910 300.946106,360.052155 300.921265,369.525665 
	C300.672455,360.895203 300.517456,351.804535 300.585266,342.369751 
z"/>
<path fill="#F9FAFC" opacity="1.000000" stroke="none" 
	d="
M210.693176,163.097321 
	C210.993210,166.748535 210.993210,170.336273 210.993210,173.923996 
	C210.807770,174.025711 210.622330,174.127441 210.436890,174.229172 
	C209.629974,170.562988 208.823044,166.896805 208.046875,162.912933 
	C208.215546,162.471176 208.353455,162.347122 208.745209,162.111115 
	C208.999039,161.999161 208.989059,161.990555 208.989059,161.990555 
	C209.457077,162.338318 209.925110,162.686081 210.693176,163.097321 
z"/>
<path fill="#F9FAFC" opacity="1.000000" stroke="none" 
	d="
M249.952774,144.638733 
	C248.671860,144.982376 247.276489,144.991974 245.466034,145.002716 
	C246.265808,142.162491 247.940201,142.467575 249.952774,144.638733 
z"/>
<path fill="#F9FAFC" opacity="1.000000" stroke="none" 
	d="
M206.203873,200.917664 
	C206.430664,200.334244 206.839691,199.958267 207.248718,199.582275 
	C207.492554,200.139160 207.736389,200.696045 207.986206,201.549561 
	C207.791382,202.394058 207.590576,202.941910 206.942169,204.710953 
	C206.628967,202.691132 206.507553,201.908112 206.203873,200.917664 
z"/>
<path fill="#F9FAFC" opacity="1.000000" stroke="none" 
	d="
M265.986725,151.585785 
	C265.371887,151.534286 264.743408,151.083328 264.056610,150.323990 
	C264.461609,149.385483 264.924988,148.755356 265.693909,148.062988 
	C265.999512,148.000748 265.979034,147.985901 265.979034,147.985901 
	C265.977051,149.052704 265.975067,150.119522 265.986725,151.585785 
z"/>
<path fill="#F9FAFC" opacity="1.000000" stroke="none" 
	d="
M243.853546,144.695312 
	C243.172501,144.999680 242.425247,144.994858 241.301468,144.979614 
	C241.879074,144.774826 242.833191,144.580475 243.853546,144.695312 
z"/>
<path fill="#F9FAFC" opacity="1.000000" stroke="none" 
	d="
M281.255280,187.785843 
	C281.115601,187.054764 281.208588,186.095200 281.602783,185.070786 
	C281.765320,185.856415 281.626617,186.706879 281.255280,187.785843 
z"/>
<path fill="#F9FAFC" opacity="1.000000" stroke="none" 
	d="
M232.715897,146.141113 
	C232.456253,146.551575 231.908524,146.976379 231.182907,147.206940 
	C231.479279,146.726944 231.953552,146.441193 232.715897,146.141113 
z"/>
<path fill="#F9FAFC" opacity="1.000000" stroke="none" 
	d="
M225.956940,148.704102 
	C225.608521,148.983932 225.192734,148.991440 224.467606,149.000824 
	C224.418655,148.516357 224.679077,148.030014 224.939499,147.543686 
	C225.256195,147.839722 225.572891,148.135742 225.956940,148.704102 
z"/>
<path fill="#FAFBFC" opacity="1.000000" stroke="none" 
	d="
M137.013306,193.017395 
	C136.649643,193.492661 136.276367,193.955887 135.903107,194.419128 
	C135.789474,194.306717 135.570206,194.103439 135.577484,194.094986 
	C135.866592,193.758789 136.176239,193.440277 136.731903,193.052612 
	C136.980545,192.985733 137.003693,193.005386 137.013306,193.017395 
z"/>
<path fill="#F9FAFC" opacity="1.000000" stroke="none" 
	d="
M234.010162,145.847107 
	C233.797348,145.991455 233.467499,146.002457 233.303894,146.009399 
	C233.510635,145.547729 233.881012,145.079102 234.251373,144.610474 
	C234.241898,144.974564 234.232437,145.338654 234.010162,145.847107 
z"/>
<path fill="#F9FAFC" opacity="1.000000" stroke="none" 
	d="
M274.651489,160.677551 
	C274.118683,160.529739 273.607574,160.086685 273.052216,159.372650 
	C273.563049,159.528549 274.118103,159.955414 274.651489,160.677551 
z"/>
<path fill="#F9FAFC" opacity="1.000000" stroke="none" 
	d="
M212.761810,208.089539 
	C213.001389,208.223785 213.001343,208.500153 213.002319,208.635925 
	C212.257568,208.526749 211.511871,208.281799 210.766159,208.036835 
	C210.854614,207.803207 210.943069,207.569565 211.031525,207.335938 
	C211.528427,207.542389 212.025345,207.748840 212.761810,208.089539 
z"/>
<path fill="#F9FAFC" opacity="1.000000" stroke="none" 
	d="
M260.319275,208.727203 
	C260.491821,208.184097 260.966156,207.642838 261.735199,207.067688 
	C261.560272,207.598892 261.090698,208.163956 260.319275,208.727203 
z"/>
<path fill="#F9FAFC" opacity="1.000000" stroke="none" 
	d="
M257.323547,210.963623 
	C257.478027,210.394241 257.937286,209.757401 258.712769,209.070465 
	C258.562103,209.645660 258.095215,210.270920 257.323547,210.963623 
z"/>
<path fill="#F9FAFC" opacity="1.000000" stroke="none" 
	d="
M281.766968,178.701752 
	C281.358002,178.442169 280.975616,177.897156 280.782837,177.181793 
	C281.246124,177.479736 281.519806,177.948029 281.766968,178.701752 
z"/>
<path fill="#F9FAFC" opacity="1.000000" stroke="none" 
	d="
M281.236328,175.911530 
	C280.992096,175.944092 280.992676,175.529587 280.989075,175.323456 
	C281.504333,175.127548 282.023193,175.137787 282.542023,175.148010 
	C282.188202,175.391663 281.834381,175.635315 281.236328,175.911530 
z"/>
<path fill="#F9FAFC" opacity="1.000000" stroke="none" 
	d="
M209.002045,162.004089 
	C209.224243,161.805740 209.431137,161.585449 209.671509,161.411423 
	C209.730011,161.369080 209.898621,161.478851 210.016602,161.518707 
	C209.806992,161.649582 209.597382,161.780457 209.188416,161.950943 
	C208.989059,161.990555 208.999039,161.999161 209.002045,162.004089 
z"/>
<path fill="#F9FAFC" opacity="1.000000" stroke="none" 
	d="
M229.229736,221.056503 
	C229.266525,220.958954 229.542664,220.891464 229.881470,220.997101 
	C229.944153,221.170212 229.469055,221.086578 229.229736,221.056503 
z"/>
<path fill="#F9FAFC" opacity="1.000000" stroke="none" 
	d="
M232.135391,222.157181 
	C232.063080,222.002136 232.505737,222.004272 232.726501,222.008545 
	C232.700745,222.112625 232.454224,222.212418 232.135391,222.157181 
z"/>
<path fill="#F3F5F5" opacity="1.000000" stroke="none" 
	d="
M164.008881,242.993958 
	C164.017334,242.987686 163.641388,242.792511 163.641388,242.792511 
	C163.641388,242.792511 163.892975,242.814865 163.940582,242.916107 
	C163.988190,243.017349 164.000443,243.000244 164.008881,242.993958 
z"/>
<path fill="#F9FAFC" opacity="1.000000" stroke="none" 
	d="
M262.270203,207.032776 
	C262.286163,206.930023 262.546936,206.828186 262.905884,206.868149 
	C263.004059,207.009933 262.514984,207.033676 262.270203,207.032776 
z"/>
<path fill="#F9FAFC" opacity="1.000000" stroke="none" 
	d="
M226.776428,148.925385 
	C226.758408,149.031967 226.486008,149.150894 226.113800,149.121933 
	C226.183365,148.961960 226.352707,148.949844 226.776428,148.925385 
z"/>
<path fill="#F9FAFC" opacity="1.000000" stroke="none" 
	d="
M266.007111,148.010849 
	C266.014709,148.020950 266.205261,147.645584 266.205261,147.645584 
	C266.205261,147.645584 266.181335,147.893494 266.080200,147.939697 
	C265.979034,147.985901 265.999512,148.000748 266.007111,148.010849 
z"/>
<path fill="#382717" opacity="1.000000" stroke="none" 
	d="
M122.981590,451.653564 
	C121.685387,450.218079 120.312378,448.453308 118.981140,446.320496 
	C120.316872,447.743073 121.610825,449.533691 122.981590,451.653564 
z"/>
<path fill="#382717" opacity="1.000000" stroke="none" 
	d="
M124.728706,454.559937 
	C124.134460,454.102356 123.530365,453.352173 122.975006,452.275085 
	C123.588783,452.721222 124.153816,453.494263 124.728706,454.559937 
z"/>
<path fill="#382717" opacity="1.000000" stroke="none" 
	d="
M156.666275,457.859833 
	C156.517151,458.299805 156.049652,458.661041 155.267822,458.994781 
	C155.418289,458.571869 155.883087,458.176483 156.666275,457.859833 
z"/>
<path fill="#382717" opacity="1.000000" stroke="none" 
	d="
M154.681976,458.928101 
	C154.524811,459.309204 154.058945,459.673889 153.272278,460.008911 
	C153.425415,459.623352 153.899353,459.267517 154.681976,458.928101 
z"/>
<path fill="#382717" opacity="1.000000" stroke="none" 
	d="
M159.668289,455.853149 
	C159.518005,456.300354 159.051254,456.662781 158.269135,456.996674 
	C158.419785,456.568207 158.885803,456.168274 159.668289,455.853149 
z"/>
<path fill="#382717" opacity="1.000000" stroke="none" 
	d="
M157.682770,456.973572 
	C157.816025,457.253601 157.652191,457.560333 157.215729,457.918762 
	C157.090637,457.647064 157.238174,457.323669 157.682770,456.973572 
z"/>
<path fill="#382717" opacity="1.000000" stroke="none" 
	d="
M160.685883,454.972961 
	C160.812042,455.245087 160.640808,455.544464 160.206238,455.908356 
	C160.091446,455.648651 160.239975,455.324402 160.685883,454.972961 
z"/>
<path fill="#382717" opacity="1.000000" stroke="none" 
	d="
M161.727219,454.014984 
	C161.824982,454.251556 161.657349,454.558350 161.218353,454.923950 
	C161.118607,454.683563 161.290222,454.384369 161.727219,454.014984 
z"/>
<path fill="#382717" opacity="1.000000" stroke="none" 
	d="
M260.669098,430.191162 
	C260.199554,433.241364 259.396667,436.451111 258.269836,439.830322 
	C258.742554,436.783417 259.539154,433.567108 260.669098,430.191162 
z"/>
<path fill="#382717" opacity="1.000000" stroke="none" 
	d="
M257.666565,440.134399 
	C257.818359,440.841003 257.667480,441.726349 257.227600,442.802002 
	C257.080353,442.099243 257.222107,441.206238 257.666565,440.134399 
z"/>
<path fill="#382717" opacity="1.000000" stroke="none" 
	d="
M256.626953,443.020752 
	C256.804077,443.535248 256.650116,444.118835 256.217743,444.845856 
	C256.058197,444.356110 256.177032,443.722992 256.626953,443.020752 
z"/>
<path fill="#382717" opacity="1.000000" stroke="none" 
	d="
M252.651459,450.132324 
	C252.794342,450.618256 252.615234,451.283081 252.174103,452.193298 
	C252.051193,451.729553 252.190338,451.020355 252.651459,450.132324 
z"/>
<path fill="#382717" opacity="1.000000" stroke="none" 
	d="
M253.704910,448.106079 
	C253.830338,448.554749 253.684814,449.155090 253.242096,449.875122 
	C253.107925,449.415802 253.270950,448.836823 253.704910,448.106079 
z"/>
<path fill="#382717" opacity="1.000000" stroke="none" 
	d="
M255.631561,445.028046 
	C255.804626,445.533142 255.648132,446.115204 255.214874,446.841675 
	C255.059418,446.359100 255.180710,445.732025 255.631561,445.028046 
z"/>
<path fill="#382717" opacity="1.000000" stroke="none" 
	d="
M254.674286,446.935181 
	C254.813766,447.265930 254.657593,447.588501 254.225159,447.948853 
	C254.092133,447.633453 254.235382,447.280212 254.674286,446.935181 
z"/>
<path fill="#9FCFE8" opacity="1.000000" stroke="none" 
	d="
M244.737839,171.628510 
	C247.159363,173.210907 249.580887,174.793304 252.217285,176.960205 
	C252.955551,177.986771 253.478958,178.428848 254.002350,178.870911 
	C254.793762,183.223801 255.347137,187.546799 251.940338,191.852325 
	C250.938736,192.851715 250.421326,193.432007 249.903931,194.012283 
	C249.139175,194.353241 248.374435,194.694183 246.959381,195.107971 
	C245.501343,195.766251 244.693588,196.351700 243.885834,196.937149 
	C240.099854,195.163208 236.313843,193.389267 232.535706,191.153198 
	C232.286316,189.830704 232.029083,188.970322 231.771835,188.109955 
	C231.874664,186.625366 232.255173,185.097504 232.031815,183.663742 
	C231.110916,177.752563 234.220413,174.743835 240.051910,172.940796 
	C242.100098,172.438690 243.418976,172.033600 244.737839,171.628510 
M237.228531,185.065659 
	C239.496933,185.957184 241.722778,187.258652 244.058594,187.501205 
	C244.800873,187.578278 246.787170,184.617172 246.514893,183.435608 
	C246.102356,181.645401 244.527939,179.584732 242.881332,178.733490 
	C239.819412,177.150589 237.764587,179.292816 237.228531,185.065659 
z"/>
<path fill="#9ECCE3" opacity="1.000000" stroke="none" 
	d="
M176.255280,195.446320 
	C165.672867,195.180084 164.560944,193.086395 163.317001,182.357956 
	C162.949036,179.184341 167.386108,173.184967 170.526855,172.296539 
	C175.959671,170.759689 182.587250,172.924225 184.663315,176.913406 
	C186.812347,181.042786 184.912018,189.291855 181.085114,192.201172 
	C179.642426,193.297913 178.093643,194.255096 176.255280,195.446320 
M179.488770,183.634827 
	C178.888809,180.284958 177.477753,176.971146 173.616547,178.077667 
	C171.593704,178.657379 169.241287,181.734268 169.046906,183.866562 
	C168.897507,185.505249 171.566727,188.304855 173.553696,189.036102 
	C177.104889,190.343018 178.928055,187.792374 179.488770,183.634827 
z"/>
<path fill="#F9FAFC" opacity="1.000000" stroke="none" 
	d="
M210.319092,186.662994 
	C210.636292,183.580093 211.015991,180.838150 211.553055,176.959991 
	C212.099457,178.429199 213.163132,179.818802 212.872940,180.813416 
	C212.258667,182.918823 215.343536,186.692749 210.319092,186.662994 
z"/>
<path fill="#F9FAFC" opacity="1.000000" stroke="none" 
	d="
M209.777725,192.944244 
	C210.293945,191.994888 210.676331,191.347107 211.058716,190.699310 
	C211.412140,190.867752 211.765549,191.036194 212.118973,191.204636 
	C211.180054,193.501297 210.241119,195.797974 209.302200,198.094635 
	C208.740097,197.864868 208.177994,197.635086 207.615891,197.405319 
	C208.291885,196.018829 208.967896,194.632324 209.777725,192.944244 
z"/>
<path fill="#F9FAFC" opacity="1.000000" stroke="none" 
	d="
M244.483673,171.454163 
	C243.418976,172.033600 242.100098,172.438690 240.397217,172.825348 
	C241.418640,172.297867 242.824066,171.788834 244.483673,171.454163 
z"/>
<path fill="#F9FAFC" opacity="1.000000" stroke="none" 
	d="
M244.230133,196.949615 
	C244.693588,196.351700 245.501343,195.766251 246.649338,195.196259 
	C246.184555,195.795166 245.379501,196.378616 244.230133,196.949615 
z"/>
<path fill="#F9FAFC" opacity="1.000000" stroke="none" 
	d="
M231.584564,188.326553 
	C232.029083,188.970322 232.286316,189.830704 232.336853,190.881943 
	C231.885849,190.229599 231.641571,189.386368 231.584564,188.326553 
z"/>
<path fill="#F9FAFC" opacity="1.000000" stroke="none" 
	d="
M253.955322,178.601837 
	C253.478958,178.428848 252.955551,177.986771 252.397675,177.279968 
	C252.878235,177.454422 253.393265,177.893600 253.955322,178.601837 
z"/>
<path fill="#F9FAFC" opacity="1.000000" stroke="none" 
	d="
M250.222168,193.958160 
	C250.421326,193.432007 250.938736,192.851715 251.730072,192.162109 
	C251.516129,192.669861 251.028259,193.286957 250.222168,193.958160 
z"/>
<path fill="#1F1610" opacity="1.000000" stroke="none" 
	d="
M237.126190,184.684296 
	C237.764587,179.292816 239.819412,177.150589 242.881332,178.733490 
	C244.527939,179.584732 246.102356,181.645401 246.514893,183.435608 
	C246.787170,184.617172 244.800873,187.578278 244.058594,187.501205 
	C241.722778,187.258652 239.496933,185.957184 237.126190,184.684296 
z"/>
<path fill="#000000" opacity="1.000000" stroke="none" 
	d="
M179.493408,184.015137 
	C178.928055,187.792374 177.104889,190.343018 173.553696,189.036102 
	C171.566727,188.304855 168.897507,185.505249 169.046906,183.866562 
	C169.241287,181.734268 171.593704,178.657379 173.616547,178.077667 
	C177.477753,176.971146 178.888809,180.284958 179.493408,184.015137 
z"/>
</svg>